<?xml version="1.0"?><svg width="640" height="480" xmlns="http://www.w3.org/2000/svg">
 <metadata id="metadata5732">image/svg+xmlBlack hammerAlexandre SaintBlack hammer</metadata>
 <g>
  <title>Layer 1</title>
  <g id="layer1">
   <path fill="#000000" stroke-width="3.243" stroke-linecap="round" stroke-linejoin="round" stroke-miterlimit="4" id="rect1644" d="m107.90535,1.58531c-6.95472,1.58118 -13.06543,7.4557 -15.8125,13.90625c-1.971062,6.32164 2.346352,12.267759 7.46875,15.40625c5.036682,5.448912 2.071602,13.81946 -3.53125,17.562502c-6.608223,7.492847 -17.16217,13.621319 -27,8.75c-4.924362,-1.779373 -8.105568,-6.344471 -12.4375,-8.84375c-7.578369,3.0938 -10.784851,11.769367 -17.323601,16.41893c-13.810028,12.739998 -22.377319,30.062164 -29.340019,47.204895c-12.0239,31.159485 -12.57058,69.645966 8.38237,97.157425c1.67276,4.153656 7.78969,4.683151 5.875,-0.90625c-2.06056,-22.712738 -0.5182,-47.755066 12.25,-67.40625c8.12685,-13.142914 24.901512,-17.831024 39.422707,-14.578659c12.524971,2.213425 25.111465,7.38179 33.171043,17.828659c42.798141,43.326859 86.36322,86.190079 129.1875,129.468735c-2.27977,4.67749 -2.229675,10.150391 1.375,14.21875c7.293365,7.669403 15.343658,14.573792 22.562515,22.375c47.389923,47.006012 93.892731,95.025879 142,141.218811c7.67804,4.188385 15.436188,-2.300507 19.53125,-8.375c6.063934,-6.524109 16.283875,-12.071411 16.78125,-21.9375c-1.814697,-10.120209 -12.59552,-14.449219 -18.285553,-22.129333c-49.919647,-49.475281 -98.884277,-100.016022 -149.526947,-148.683212c-3.678589,-2.087952 -8.176819,-1.007767 -11.75,0.75c-45.51207,-44.876587 -90.701096,-90.120987 -135.694244,-135.625999c-7.12571,-6.004219 -13.469933,-14.515945 -11.399521,-24.374001c1.527397,-8.596024 8.365898,-15.282295 15,-20.375c5.332367,-3.9767 11.485107,0.196381 14.738358,4.738358c4.163849,5.37661 12.297272,6.358124 17.230392,1.386642c5.803177,-4.558121 12.565033,-12.603539 7.375,-20.09375c-5.89006,-7.658234 -14.021164,-13.231071 -20.295776,-20.634293c-11.734375,-11.413219 -22.548096,-24.033179 -35.516724,-33.928209c-1.413452,-0.50159 -2.946533,-0.68107 -4.4375,-0.5z"/>
  </g>
 </g>
</svg>