<?xml version="1.0" encoding="UTF-8"?>
<svg width="160px" height="42px" viewBox="0 0 160 42" version="1.1" xmlns="http://www.w3.org/2000/svg" xmlns:xlink="http://www.w3.org/1999/xlink">
    <!-- Generator: Sketch 47.1 (45422) - http://www.bohemiancoding.com/sketch -->
    <title>Logo</title>
    <desc>Created with Sketch.</desc>
    <defs></defs>
    <g id="Page-1" stroke="none" stroke-width="1" fill="none" fill-rule="evenodd">
        <g id="Landing-Page-New" transform="translate(-31.000000, -42.000000)">
            <g id="Header">
                <g id="Logo" transform="translate(32.000000, 42.000000)">
                    <text id="Visual-Inspector" font-family="Helvetica-Bold, Helvetica" font-size="14" font-weight="bold" fill="#FFFFFF">
                        <tspan x="47.9251445" y="25">Visual</tspan>
                        <tspan x="89.1663555" y="25" font-family="ProximaNova-Bold, Proxima Nova" font-size="16"> </tspan>
                        <tspan x="93.2623555" y="25" font-family="Helvetica" font-size="16" font-weight="normal">Inspector</tspan>
                    </text>
                    <g id="Logo-Icon" transform="translate(20.000000, 20.500000) rotate(90.000000) translate(-20.000000, -20.500000) translate(0.000000, 1.000000)" fill-rule="nonzero">
                        <path d="M24.2290779,1.01494492 L35.402501,7.09553997 L35.402501,7.09553997 C37.8891894,8.44879986 39.4210526,10.9497273 39.4210526,13.6562471 L39.4210526,25.8174372 L39.4210526,25.8174372 C39.4210526,28.5239569 37.8891894,31.0248844 35.402501,32.3781443 L24.2290779,38.4587393 L24.2290779,38.4587393 C21.7423895,39.8119992 18.6786631,39.8119992 16.1919747,38.4587393 L5.01855164,32.3781443 L5.01855164,32.3781443 C2.53186322,31.0248844 1,28.5239569 1,25.8174372 L1,13.6562471 L1,13.6562471 C1,10.9497273 2.53186322,8.44879986 5.01855164,7.09553997 L16.1919747,1.01494492 L16.1919747,1.01494492 C18.6786631,-0.338314973 21.7423895,-0.338314973 24.2290779,1.01494492 Z" id="Polygon" stroke="#FFFFFF" stroke-width="1.5" transform="translate(20.210526, 19.736842) rotate(90.000000) translate(-20.210526, -19.736842) "></path>
                        <g id="eyeball" transform="translate(19.629032, 19.564516) rotate(90.000000) translate(-19.629032, -19.564516) translate(8.129032, 13.064516)" fill="#FFFFFF">
                            <path d="M11.3158291,3.15789474 C11.7849151,3.15789474 12.2297379,3.23976658 12.6502977,3.40351026 C13.0707386,3.56725394 13.4348432,3.79337617 13.7421753,4.08187694 C14.0495075,4.37037771 14.2920985,4.70566239 14.4699484,5.08773098 C14.6478775,5.46979957 14.7368421,5.87915877 14.7368421,6.31580858 C14.7368421,6.7524584 14.6478775,7.16177938 14.4699484,7.54384797 C14.2920985,7.92591656 14.0495075,8.26131591 13.7421753,8.54970201 C13.4348432,8.83816456 13.0707386,9.06436323 12.6502977,9.22806869 C12.2297776,9.3916977 11.7849151,9.47368421 11.3158291,9.47368421 C10.8467432,9.47368421 10.4019203,9.3916977 9.9813605,9.22806869 C9.56080069,9.06436323 9.19685471,8.838241 8.88952254,8.54970201 C8.58219037,8.26123946 8.33955972,7.92591656 8.16163057,7.54384797 C7.98370142,7.16177938 7.89473684,6.7524584 7.89473684,6.31580858 C7.89473684,5.87915877 7.98370142,5.46979957 8.16163057,5.08773098 C8.33955972,4.70566239 8.58219037,4.37037771 8.88952254,4.08187694 C9.19685471,3.79337617 9.56080069,3.56725394 9.9813605,3.40351026 C10.4019203,3.23976658 10.8467432,3.15789474 11.3158291,3.15789474 Z M11.052651,11.0526316 C11.7829474,11.0526316 12.4656911,10.9291961 13.1007653,10.682215 C13.7358395,10.435234 14.2916072,10.0985283 14.767835,9.67202471 C15.2441407,9.24544774 15.6212938,8.74407583 15.899061,8.16790897 C16.1767892,7.59166875 16.3157895,6.97430781 16.3157895,6.31578947 C16.3157895,5.65727114 16.176867,5.0399102 15.899061,4.46370666 C15.6211771,3.88750312 15.2441407,3.3861312 14.767835,2.95959092 C14.2916072,2.53305064 13.7358395,2.19630831 13.1007653,1.94936393 C12.4656911,1.70241956 11.7829474,1.57894737 11.052651,1.57894737 C10.3223157,1.57894737 9.63961096,1.70241956 9.00453677,1.94936393 C8.36946258,2.19630831 7.81377267,2.53305064 7.33746702,2.95959092 C6.86116138,3.3861312 6.48408608,3.88750312 6.20624112,4.46370666 C5.92839616,5.0399102 5.78947368,5.65727114 5.78947368,6.31578947 C5.78947368,6.97430781 5.92839616,7.59166875 6.20624112,8.16790897 C6.48408608,8.74407583 6.86116138,9.24544774 7.33746702,9.67202471 C7.81377267,10.0985283 8.36946258,10.4352706 9.00453677,10.682215 C9.63961096,10.9291594 10.3223157,11.0526316 11.052651,11.0526316 Z M11.0526316,0 C12.1209741,0 13.1382561,0.119873681 14.1044391,0.359621043 C15.0706606,0.599368405 15.9622553,0.910290764 16.7792616,1.29238812 C17.5961909,1.67448548 18.3347581,2.10528152 18.9944627,2.58477624 C19.6543598,3.06427097 20.2160251,3.53627359 20.6794587,4.0007841 C21.1429694,4.46529461 21.496465,4.90358276 21.7399843,5.31564854 C21.9835035,5.72771432 22.1052632,6.06111299 22.1052632,6.31584456 C22.1052632,6.57057613 21.9835035,6.90397481 21.7399843,7.31607731 C21.496465,7.72810637 21.1429694,8.16628433 20.6794587,8.63090503 C20.2160251,9.09534209 19.6543598,9.56741816 18.9944627,10.0469496 C18.3346426,10.5265545 17.5961524,10.9572036 16.7792616,11.339301 C15.9622553,11.7213249 15.0706606,12.0323574 14.1044391,12.2719946 C13.1382176,12.5117053 12.1209356,12.6315789 11.0526316,12.6315789 C9.96857816,12.6315789 8.94736842,12.5117053 7.98900236,12.2719946 C7.03063629,12.0323574 6.14296936,11.7213249 5.32600157,11.339301 C4.50903378,10.9572036 3.77062058,10.5264443 3.11076198,10.0469496 C2.45090338,9.56741816 1.88923802,9.09545226 1.42576591,8.63090503 C0.962293794,8.16635779 0.608798115,7.72810637 0.365278869,7.31607731 C0.121759623,6.90390136 0,6.57050268 0,6.31584456 C0,6.06111299 0.121759623,5.72771432 0.365278869,5.31564854 C0.608798115,4.90358276 0.962293794,4.46529461 1.42576591,4.0007841 C1.88923802,3.53627359 2.45090338,3.06427097 3.11076198,2.58477624 C3.77062058,2.10528152 4.50903378,1.67448548 5.32600157,1.29238812 C6.14296936,0.910290764 7.03063629,0.599368405 7.98900236,0.359621043 C8.94736842,0.119873681 9.96857816,0 11.0526316,0 Z" id="Shape"></path>
                        </g>
                    </g>
                </g>
            </g>
        </g>
    </g>
</svg>